<?xml version="1.0" encoding="iso-8859-1"?>
<!-- Uploaded to: SVG Repo, www.svgrepo.com, Generator: SVG Repo Mixer Tools -->
<svg height="800px" width="800px" version="1.1" id="Capa_1" xmlns="http://www.w3.org/2000/svg" xmlns:xlink="http://www.w3.org/1999/xlink" 
	 viewBox="0 0 208.163 208.163" xml:space="preserve">
<g>
	<path style="fill:#010002;" d="M203.556,89.529l-29.741-22.404c-1.545-2.105-3.938-4.161-7.62-5.749L114.6,22.498
		c-3.514-2.633-8.224-3.073-12.162-1.115c-3.938,1.958-6.429,5.994-6.429,10.383V57.02C65.48,59.473,41.619,70.417,24.975,89.644
		c-30.834,35.615-24.546,86.138-24.264,88.271c0.696,5.292,4.922,9.42,10.225,10.013c0.43,0.044,0.854,0.065,1.284,0.065
		c4.814,0,9.192-2.997,10.884-7.593c14.577-39.689,51.802-45.612,72.699-45.612c0.065,0,0.136,0,0.201,0v30.007
		c0,4.378,2.469,8.392,6.385,10.361c3.922,1.974,8.61,1.572,12.129-1.044l88.956-65.992c2.937-2.181,4.678-5.619,4.688-9.274
		C208.19,95.192,206.477,91.738,203.556,89.529z M119.218,141.734v-17.878c0-5.76-4.215-10.644-9.91-11.482
		c-0.555-0.076-5.651-0.794-13.494-0.794c-15.055,0-45.014,2.85-68.679,22.947c2.817-10.1,7.549-20.641,15.393-29.692
		c14.142-16.333,36.083-24.797,65.225-25.134c6.358-0.076,11.466-5.249,11.466-11.602V55.04L153.5,80.876
		c0.631,0.473,1.501,0.952,2.344,1.343c0.587,0.718,1.262,1.376,2.012,1.936l19.336,14.566L119.218,141.734z"/>
</g>
</svg>